# xmcd
#
# Track frame offsets: 
#        150
#        17513
#        32326
#        47486
#        67436
#        80074
#        90068
#        103343
#        126683
#
# Disc length: 1899 seconds
#
# Revision: 0
# Processed by: cddbd v1.5.2PL0 Copyright (c) Steve Scherf et al.
# Submitted via: ExactAudioCopy v0.99pb5
#
DISCID=73076909
DTITLE=Ramsay Midwood - Larry Buys a Lighter
DYEAR=2011
DGENRE=Alt-Country
TTITLE0=Rotten Alabama
TTITLE1=Maybelline
TTITLE2=Loopers
TTITLE3=911
TTITLE4=Lightfoot
TTITLE5=Pflugerville
TTITLE6=Rosco
TTITLE7=Jonah
TTITLE8=High Power
EXTD=
EXTT0=
EXTT1=
EXTT2=
EXTT3=
EXTT4=
EXTT5=
EXTT6=
EXTT7=
EXTT8=
PLAYORDER=
